<svg width="20" height="20" viewBox="0 0 20 20" fill="none" xmlns="http://www.w3.org/2000/svg">
<g id="Graph">
<path id="Ellipse 1" d="M9 4C9 3.44772 8.55055 2.99356 8.00258 3.06242C6.77376 3.21683 5.59275 3.65513 4.55544 4.34824C3.23985 5.22729 2.21446 6.47672 1.60896 7.93853C1.00346 9.40034 0.845036 11.0089 1.15372 12.5607C1.4624 14.1126 2.22433 15.538 3.34315 16.6569C4.46197 17.7757 5.88743 18.5376 7.43928 18.8463C8.99113 19.155 10.5997 18.9965 12.0615 18.391C13.5233 17.7855 14.7727 16.7602 15.6518 15.4446C16.3449 14.4072 16.7832 13.2262 16.9376 11.9974C17.0064 11.4494 16.5523 11 16 11H10.5C9.67157 11 9 10.3284 9 9.5V4Z" stroke="#262C3C" stroke-width="1.5"/>
<path id="Ellipse 2" d="M12 2C12 1.44772 12.45 0.992677 12.9966 1.07131C13.5731 1.15423 14.1383 1.30896 14.6788 1.53284C15.5281 1.88463 16.2997 2.40024 16.9497 3.05025C17.5998 3.70026 18.1154 4.47194 18.4672 5.32122C18.691 5.86171 18.8458 6.4269 18.9287 7.00339C19.0073 7.55005 18.5523 8 18 8L13 8C12.4477 8 12 7.55228 12 7V2Z" stroke="#262C3C" stroke-width="1.5"/>
</g>
</svg>
