<svg width="28" height="28" viewBox="0 0 28 28" fill="none" xmlns="http://www.w3.org/2000/svg">
<g id="Star">
<path id="Star 2" d="M12.7148 2.38558C13.2978 1.41685 14.7022 1.41685 15.2852 2.38558L18.1983 7.22609C18.4077 7.5741 18.7493 7.82231 19.145 7.91395L24.6488 9.18864C25.7503 9.44374 26.1843 10.7794 25.4431 11.6333L21.7397 15.8995C21.4734 16.2063 21.343 16.6079 21.3781 17.0125L21.8665 22.6408C21.9643 23.7672 20.8281 24.5927 19.787 24.1517L14.5851 21.9479C14.2111 21.7894 13.7889 21.7894 13.4149 21.9479L8.21297 24.1517C7.17192 24.5927 6.0357 23.7672 6.13346 22.6408L6.62192 17.0125C6.65704 16.6079 6.52655 16.2063 6.26029 15.8995L2.55688 11.6333C1.81572 10.7794 2.24971 9.44374 3.35118 9.18864L8.85496 7.91395C9.25067 7.82231 9.59229 7.5741 9.80173 7.22609L12.7148 2.38558Z" stroke="black" stroke-width="1.875"/>
</g>
</svg>
