<svg width="16" height="15" viewBox="0 0 16 15" xmlns="http://www.w3.org/2000/svg">
<path d="M2.80933 14.755H13.1829C14.8177 14.755 15.669 13.9113 15.669 12.2991V3.13084C15.669 1.51868 14.8177 0.674927 13.1829 0.674927H2.80933C1.18209 0.674927 0.330811 1.51114 0.330811 3.13084V12.2991C0.330811 13.9113 1.18209 14.755 2.80933 14.755ZM2.80179 13.2558C2.17651 13.2558 1.82997 12.9319 1.82997 12.269V5.33815C1.82997 4.67521 2.17651 4.35127 2.80179 4.35127H13.1905C13.8157 4.35127 14.1623 4.67521 14.1623 5.33815V12.269C14.1623 12.9319 13.8157 13.2558 13.1905 13.2558H2.80179ZM6.54593 6.95032H6.99041C7.26161 6.95032 7.35202 6.86745 7.35202 6.60378V6.1593C7.35202 5.8881 7.26161 5.80523 6.99041 5.80523H6.54593C6.27473 5.80523 6.18433 5.8881 6.18433 6.1593V6.60378C6.18433 6.86745 6.27473 6.95032 6.54593 6.95032ZM9.00938 6.95032H9.45386C9.71753 6.95032 9.80793 6.86745 9.80793 6.60378V6.1593C9.80793 5.8881 9.71753 5.80523 9.45386 5.80523H9.00938C8.73818 5.80523 8.64777 5.8881 8.64777 6.1593V6.60378C8.64777 6.86745 8.73818 6.95032 9.00938 6.95032ZM11.4653 6.95032H11.9098C12.181 6.95032 12.2714 6.86745 12.2714 6.60378V6.1593C12.2714 5.8881 12.181 5.80523 11.9098 5.80523H11.4653C11.2016 5.80523 11.1112 5.8881 11.1112 6.1593V6.60378C11.1112 6.86745 11.2016 6.95032 11.4653 6.95032ZM4.09002 9.3761H4.52696C4.79817 9.3761 4.88857 9.29323 4.88857 9.02203V8.57755C4.88857 8.31388 4.79817 8.23101 4.52696 8.23101H4.09002C3.81881 8.23101 3.72841 8.31388 3.72841 8.57755V9.02203C3.72841 9.29323 3.81881 9.3761 4.09002 9.3761ZM6.54593 9.3761H6.99041C7.26161 9.3761 7.35202 9.29323 7.35202 9.02203V8.57755C7.35202 8.31388 7.26161 8.23101 6.99041 8.23101H6.54593C6.27473 8.23101 6.18433 8.31388 6.18433 8.57755V9.02203C6.18433 9.29323 6.27473 9.3761 6.54593 9.3761ZM9.00938 9.3761H9.45386C9.71753 9.3761 9.80793 9.29323 9.80793 9.02203V8.57755C9.80793 8.31388 9.71753 8.23101 9.45386 8.23101H9.00938C8.73818 8.23101 8.64777 8.31388 8.64777 8.57755V9.02203C8.64777 9.29323 8.73818 9.3761 9.00938 9.3761ZM11.4653 9.3761H11.9098C12.181 9.3761 12.2714 9.29323 12.2714 9.02203V8.57755C12.2714 8.31388 12.181 8.23101 11.9098 8.23101H11.4653C11.2016 8.23101 11.1112 8.31388 11.1112 8.57755V9.02203C11.1112 9.29323 11.2016 9.3761 11.4653 9.3761ZM4.09002 11.7943H4.52696C4.79817 11.7943 4.88857 11.7115 4.88857 11.4478V11.0033C4.88857 10.7321 4.79817 10.6493 4.52696 10.6493H4.09002C3.81881 10.6493 3.72841 10.7321 3.72841 11.0033V11.4478C3.72841 11.7115 3.81881 11.7943 4.09002 11.7943ZM6.54593 11.7943H6.99041C7.26161 11.7943 7.35202 11.7115 7.35202 11.4478V11.0033C7.35202 10.7321 7.26161 10.6493 6.99041 10.6493H6.54593C6.27473 10.6493 6.18433 10.7321 6.18433 11.0033V11.4478C6.18433 11.7115 6.27473 11.7943 6.54593 11.7943ZM9.00938 11.7943H9.45386C9.71753 11.7943 9.80793 11.7115 9.80793 11.4478V11.0033C9.80793 10.7321 9.71753 10.6493 9.45386 10.6493H9.00938C8.73818 10.6493 8.64777 10.7321 8.64777 11.0033V11.4478C8.64777 11.7115 8.73818 11.7943 9.00938 11.7943Z" fill="currentColor" />
</svg>
