<svg width="30" height="30" viewBox="0 0 30 30" fill="none" xmlns="http://www.w3.org/2000/svg">
<g id="Iconex/Light/Edit 2">
<path id="Union" fill-rule="evenodd" clip-rule="evenodd" d="M16.8927 4.75739C18.2341 3.41394 20.4097 3.41313 21.7522 4.75555L24.867 7.87037C26.198 9.20134 26.2118 11.356 24.898 12.704L13.3566 24.5456C12.4747 25.4504 11.2651 25.9606 10.002 25.9606L6.56186 25.9604C4.9628 25.9604 3.68578 24.6274 3.75303 23.0285L3.90072 19.5173C3.95009 18.3435 4.43794 17.231 5.26774 16.3999L16.8927 4.75739ZM20.4273 6.08238C19.8171 5.47218 18.8282 5.47256 18.2185 6.08321L16.1396 8.16522L21.4894 13.515L23.5563 11.3943C24.1534 10.7816 24.1472 9.80218 23.5422 9.1972L20.4273 6.08238ZM6.59356 17.7257L14.8148 9.49205L20.1805 14.8578L12.0148 23.2359C11.4857 23.7788 10.7599 24.0849 10.0021 24.0849L6.56194 24.0847C6.02891 24.0847 5.60324 23.6404 5.62566 23.1074L5.77335 19.5961C5.80298 18.8919 6.09569 18.2244 6.59356 17.7257ZM25.6443 25.869C26.1618 25.869 26.5814 25.4491 26.5814 24.9312C26.5814 24.4132 26.1618 23.9933 25.6443 23.9933H17.9921C17.4745 23.9933 17.055 24.4132 17.055 24.9312C17.055 25.4491 17.4745 25.869 17.9921 25.869H25.6443Z" fill="currentColor"/>
</g>
</svg>
