<svg width="28" height="29" viewBox="0 0 28 29" fill="none" xmlns="http://www.w3.org/2000/svg">
<g id="Home">
<path id="Rectangle 74" d="M1.26074 13.2675C1.26074 11.6707 1.99193 10.1619 3.24521 9.17247L10.4191 3.50886C12.3146 2.01239 14.9894 2.01239 16.885 3.50885L24.0589 9.17247C25.3122 10.1619 26.0434 11.6707 26.0434 13.2675V21.8261C26.0434 24.7076 23.7074 27.0435 20.826 27.0435H18.8694C18.1491 27.0435 17.5651 26.4595 17.5651 25.7392V21.8261C17.5651 20.3854 16.3971 19.2174 14.9564 19.2174H12.3477C10.907 19.2174 9.739 20.3854 9.739 21.8261V25.7392C9.739 26.4595 9.15503 27.0435 8.43466 27.0435H6.47814C3.59665 27.0435 1.26074 24.7076 1.26074 21.8261L1.26074 13.2675Z" stroke="#262C3C" stroke-width="1.95652"/>
</g>
</svg>
