<svg width="15" height="16" viewBox="0 0 15 16" fill="none" xmlns="http://www.w3.org/2000/svg">
<path d="M5.32811 0C6.79935 0 8.13142 0.596429 9.09562 1.56063C10.0598 2.52482 10.6562 3.85687 10.6562 5.32811C10.6562 6.79935 10.0598 8.13138 9.09562 9.09562C8.13142 10.0598 6.79935 10.6562 5.32811 10.6562C3.85689 10.6562 2.52482 10.0598 1.56063 9.09562C0.596406 8.13138 0 6.79935 0 5.32811C0 3.85689 0.596429 2.52482 1.56063 1.56063C2.52482 0.596429 3.85687 0 5.32811 0ZM8.2477 2.40854C7.50059 1.66144 6.46832 1.19928 5.32811 1.19928C4.1879 1.19928 3.15565 1.66144 2.40854 2.40854C1.66144 3.15565 1.19928 4.18792 1.19928 5.32811C1.19928 6.46832 1.66142 7.50055 2.40854 8.2477C3.15565 8.99481 4.18792 9.45696 5.32811 9.45696C6.46832 9.45696 7.5006 8.9948 8.2477 8.2477C8.99483 7.50055 9.45696 6.46832 9.45696 5.32811C9.45696 4.1879 8.9948 3.15565 8.2477 2.40854Z" fill="black"/>
<path d="M9.01049 8.61743L14.9999 14.6069L14.152 15.4548L8.1626 9.46538L9.01049 8.61743Z" fill="black"/>
</svg>
