<svg width="24" height="27" viewBox="0 0 24 27" fill="none" xmlns="http://www.w3.org/2000/svg">
<g id="Trash can">
<path id="Rectangle 74" d="M3.31329 8.91772C2.25716 7.50954 3.26193 5.5 5.02215 5.5H18.9778C20.7381 5.5 21.7428 7.50954 20.6867 8.91772V8.91772C19.9164 9.9448 19.5 11.194 19.5 12.4778V20.5C19.5 23.2614 17.2614 25.5 14.5 25.5H9.5C6.73858 25.5 4.5 23.2614 4.5 20.5V12.4778C4.5 11.194 4.0836 9.9448 3.31329 8.91772V8.91772Z" stroke="#2B3F6C" stroke-width="1.875"/>
<path id="Line" d="M14.5 19.25L14.5 11.75" stroke="#2B3F6C" stroke-width="1.875" stroke-linecap="round" stroke-linejoin="round"/>
<path id="Line_2" d="M9.5 19.25L9.5 11.75" stroke="#2B3F6C" stroke-width="1.875" stroke-linecap="round" stroke-linejoin="round"/>
<path id="Rectangle 4" d="M17 5.5L16.3198 3.45943C15.9795 2.43858 15.0242 1.75 13.9481 1.75H10.0519C8.97582 1.75 8.02048 2.43857 7.68019 3.45943L7 5.5" stroke="#2B3F6C" stroke-width="1.875" stroke-linecap="round"/>
</g>
</svg>
